<svg xmlns='http://www.w3.org/2000/svg' width='448' height='448'>
  <path

    transform="rotate(90, 0, 0) translate(25,-400) scale(0.9) "
    fill="#475fdd"
    d="M224 416c124 0 224 -100 224 -224s-100 -224 -224 -224s-224 100 -224 224c0 39 10 76 27 108c-16 12 -27 30 -27 52c0 35 29 64 64 64c22 0 40 -11 52 -27c32 17 69 27 108 27zM32 352c0 -10 5 -20 13 -26c13 17 28 32 45 45c-6 8 -16 13 -26 13c-18 0 -32 -14 -32 -32z
M360 56c36 36 56 85 56 136s-20 100 -56 136s-85 56 -136 56s-100 -20 -136 -56s-56 -85 -56 -136s20 -100 56 -136s85 -56 136 -56s100 20 136 56zM320 320c0 0 -54 -130 -72 -152s-120 -104 -120 -104s54 132 72 152s120 104 120 104z"/>
</svg>
