<svg xmlns="http://www.w3.org/2000/svg" count="100%" height="100%" id="svg">
	<defs>
		<filter id="dropshadow" height="130%">
  <feGaussianBlur in="SourceAlpha" stdDeviation="3"/> <!-- stdDeviation is how much to blur -->
  <feOffset dx="2" dy="2" result="offsetblur"/> <!-- how much to offset -->
  <feMerge>
    <feMergeNode/> <!-- this contains the offset blurred image -->
    <feMergeNode in="SourceGraphic"/> <!-- this contains the element that the filter is applied to -->
  </feMerge>
</filter>
		<style type="text/css"><![CDATA[
			circle{
			filter: url(#dropshadow);
			}
    ]]>

		</style>

	</defs><circle cx="39.80194467106239%" cy="39.3742757636791%" r="10.941676104701163%" fill-opacity=".1" fill="#33b144" stroke="none"/><circle cx="1.3734909630035546%" cy="71.7724755995022%" r="11.129220284291778%" fill-opacity=".1" fill="#91d947" stroke="none"/><circle cx="58.643373868455285%" cy="71.79465416446631%" r="11.087462033810963%" fill-opacity=".1" fill="#91d947" stroke="none"/><circle cx="24.999384859496622%" cy="15.878409502344482%" r="14.28025972760284%" fill-opacity=".1" fill="#33b144" stroke="none"/><circle cx="43.91600188609806%" cy="91.8783156576035%" r="12.082869038678481%" fill-opacity=".1" fill="#3f8c0b" stroke="none"/><circle cx="54.62371622329961%" cy="1.2912399169970925%" r="16.222286530471496%" fill-opacity=".1" fill="#33b144" stroke="none"/><circle cx="99.54492157446842%" cy="107.96056341706816%" r="11.084912524572527%" fill-opacity=".1" fill="#91d947" stroke="none"/><circle cx="116.79216356752127%" cy="114.34970368231271%" r="18.294405496612228%" fill-opacity=".1" fill="#33b144" stroke="none"/><circle cx="51.8596548373733%" cy="77.2689669575708%" r="17.607883122335856%" fill-opacity=".1" fill="#33b144" stroke="none"/><circle cx="13.516059266124522%" cy="48.03324923498231%" r="10.856730748791598%" fill-opacity=".1" fill="#3749a3" stroke="none"/><circle cx="70.97927068747579%" cy="88.15695362453607%" r="13.097284134368149%" fill-opacity=".1" fill="#33b144" stroke="none"/><circle cx="52.384869052521964%" cy="-5.233113516634575%" r="15.16631693721964%" fill-opacity=".1" fill="#33b144" stroke="none"/><circle cx="116.10084697553728%" cy="78.1864245667086%" r="18.67217336988965%" fill-opacity=".1" fill="#91d947" stroke="none"/><circle cx="106.77204824097656%" cy="41.64355297868931%" r="11.112361549094413%" fill-opacity=".1" fill="#91d947" stroke="none"/><circle cx="96.25695374179847%" cy="70.61398931551668%" r="20.000679108065974%" fill-opacity=".1" fill="#33b144" stroke="none"/><circle cx="-3.402009828427012%" cy="60.14944486704577%" r="22.447832115002207%" fill-opacity=".1" fill="#91d947" stroke="none"/><circle cx="9.772418281816314%" cy="59.520163681241414%" r="10.392733428692118%" fill-opacity=".1" fill="#3749a3" stroke="none"/><circle cx="83.6437155525062%" cy="2.3216850083650584%" r="12.801018583425058%" fill-opacity=".1" fill="#91d947" stroke="none"/><circle cx="108.33521228647083%" cy="111.52563603649907%" r="12.012293018981254%" fill-opacity=".1" fill="#eb9c34" stroke="none"/><circle cx="67.57944252244796%" cy="61.88090155921908%" r="30.76901643264231%" fill-opacity=".1" fill="#33b144" stroke="none"/><circle cx="-5.75305708547987%" cy="50.61026376998504%" r="13.182069367506584%" fill-opacity=".1" fill="#eb9c34" stroke="none"/><circle cx="11.324267970460916%" cy="69.48457311389913%" r="33.43548194566104%" fill-opacity=".1" fill="#91d947" stroke="none"/><circle cx="63.29660637089458%" cy="118.1036359561484%" r="11.06831497898159%" fill-opacity=".1" fill="#3f8c0b" stroke="none"/><circle cx="82.92269562516474%" cy="45.805582748133034%" r="24.93221645085587%" fill-opacity=".1" fill="#91d947" stroke="none"/><circle cx="60.136531052560144%" cy="88.03480387495432%" r="20.507207887188073%" fill-opacity=".1" fill="#3f8c0b" stroke="none"/><circle cx="108.46896568952104%" cy="94.57400823810045%" r="21.440441160415517%" fill-opacity=".1" fill="#3f8c0b" stroke="none"/><circle cx="21.841815600781885%" cy="79.01283017263195%" r="38.753852397868584%" fill-opacity=".1" fill="#33b144" stroke="none"/><circle cx="78.20823859014072%" cy="-11.258267001583153%" r="28.707121157973937%" fill-opacity=".1" fill="#3749a3" stroke="none"/><circle cx="46.92302256105431%" cy="-16.09455116506007%" r="35.52243492682718%" fill-opacity=".1" fill="#91d947" stroke="none"/><circle cx="-9.60917936160612%" cy="-3.267037975387929%" r="21.925244891972206%" fill-opacity=".1" fill="#3f8c0b" stroke="none"/><circle cx="79.28826161439342%" cy="-18.535633904503534%" r="31.83040366049969%" fill-opacity=".1" fill="#eb9c34" stroke="none"/><circle cx="116.85210862478183%" cy="61.57498074616227%" r="41.17658246651977%" fill-opacity=".1" fill="#33b144" stroke="none"/><circle cx="31.36641858444299%" cy="116.21811321882026%" r="38.38744997294711%" fill-opacity=".1" fill="#91d947" stroke="none"/><circle cx="68.09901744939611%" cy="69.3444898387059%" r="30.47766667372948%" fill-opacity=".1" fill="#33b144" stroke="none"/><circle cx="47.68164615197814%" cy="37.43228380422539%" r="29.357985760632022%" fill-opacity=".1" fill="#91d947" stroke="none"/><circle cx="57.32800527998556%" cy="23.138466622467263%" r="27.27011707358691%" fill-opacity=".1" fill="#3f8c0b" stroke="none"/><circle cx="-4.851253218004183%" cy="36.18363116660847%" r="40.24465059436439%" fill-opacity=".1" fill="#3749a3" stroke="none"/><circle cx="50.23156218477119%" cy="115.18911216857603%" r="49.69399211434598%" fill-opacity=".1" fill="#3f8c0b" stroke="none"/><circle cx="-9.833134948429576%" cy="97.51895542786335%" r="52.84062734971885%" fill-opacity=".1" fill="#33b144" stroke="none"/><circle cx="74.08209780179071%" cy="104.72195175613123%" r="32.13197377533629%" fill-opacity=".1" fill="#91d947" stroke="none"/><circle cx="97.34102597109485%" cy="38.52624174835149%" r="25.175353486063727%" fill-opacity=".1" fill="#3f8c0b" stroke="none"/><circle cx="-5.408469529468434%" cy="35.56383435646707%" r="22.32794626639953%" fill-opacity=".1" fill="#3f8c0b" stroke="none"/><circle cx="53.613578882651424%" cy="26.25384024909009%" r="23.201368598438727%" fill-opacity=".1" fill="#33b144" stroke="none"/><circle cx="-2.9897653134451083%" cy="21.62434392150567%" r="44.177707438807815%" fill-opacity=".1" fill="#3749a3" stroke="none"/><circle cx="50.040203326502066%" cy="-14.777832110625603%" r="17.45661805349485%" fill-opacity=".1" fill="#eb9c34" stroke="none"/><circle cx="-17.481859706609747%" cy="65.99084148522098%" r="64.96071592422254%" fill-opacity=".1" fill="#33b144" stroke="none"/><circle cx="28.498893749335217%" cy="6.812692254496476%" r="56.439389457422386%" fill-opacity=".1" fill="#3f8c0b" stroke="none"/><circle cx="106.42557112545997%" cy="-9.2163904488236%" r="52.10704180898398%" fill-opacity=".1" fill="#3749a3" stroke="none"/><circle cx="20.01022256865268%" cy="65.9477538372159%" r="35.248613724545415%" fill-opacity=".1" fill="#33b144" stroke="none"/><circle cx="-17.94425650669006%" cy="10.916011164384166%" r="53.59824552996135%" fill-opacity=".1" fill="#33b144" stroke="none"/><circle cx="68.64727338064017%" cy="82.0394933929047%" r="19.43546837437769%" fill-opacity=".1" fill="#91d947" stroke="none"/><circle cx="27.314771814650683%" cy="60.64701496260099%" r="38.44840837837281%" fill-opacity=".1" fill="#3f8c0b" stroke="none"/><circle cx="54.04901523301693%" cy="70.98469734204777%" r="41.33512259142714%" fill-opacity=".1" fill="#33b144" stroke="none"/><circle cx="118.86132231114337%" cy="12.020096754912018%" r="12.80363043076336%" fill-opacity=".1" fill="#91d947" stroke="none"/><circle cx="18.664933102793512%" cy="71.1826293803368%" r="11.063988907284724%" fill-opacity=".1" fill="#91d947" stroke="none"/><circle cx="111.50296476489842%" cy="85.49490539011069%" r="50.56641316952963%" fill-opacity=".1" fill="#3f8c0b" stroke="none"/><circle cx="22.331967497192686%" cy="21.63526744240982%" r="59.3413010387068%" fill-opacity=".1" fill="#3f8c0b" stroke="none"/><circle cx="89.29070349849044%" cy="19.18781433233014%" r="77.03351958345723%" fill-opacity=".1" fill="#3f8c0b" stroke="none"/><circle cx="45.291983540993314%" cy="14.077720839619083%" r="50.22788184187942%" fill-opacity=".1" fill="#3749a3" stroke="none"/><circle cx="3.2697158787816605%" cy="39.34968056697939%" r="72.7966981825466%" fill-opacity=".1" fill="#33b144" stroke="none"/><circle cx="105.0262201595423%" cy="110.09896317437921%" r="80.49644670522518%" fill-opacity=".1" fill="#3749a3" stroke="none"/><circle cx="57.38226424321799%" cy="-13.37601325816145%" r="75.26909532490183%" fill-opacity=".1" fill="#33b144" stroke="none"/><circle cx="34.8575443784813%" cy="-18.41204000917854%" r="53.91695604813364%" fill-opacity=".1" fill="#eb9c34" stroke="none"/><circle cx="-7.710299310169514%" cy="17.9554363499793%" r="56.11154679343006%" fill-opacity=".1" fill="#3f8c0b" stroke="none"/><circle cx="38.79660078742568%" cy="67.57930381557063%" r="44.421437701164514%" fill-opacity=".1" fill="#3749a3" stroke="none"/><circle cx="118.29943033441481%" cy="47.00600895521734%" r="27.71605502497313%" fill-opacity=".1" fill="#91d947" stroke="none"/><circle cx="88.76528622255034%" cy="74.57547900880635%" r="90.22401230124558%" fill-opacity=".1" fill="#33b144" stroke="none"/><circle cx="63.30626007297707%" cy="71.03829003189306%" r="64.04382129485266%" fill-opacity=".1" fill="#91d947" stroke="none"/><circle cx="53.99791948071437%" cy="80.56988815709258%" r="65.89680175943445%" fill-opacity=".1" fill="#91d947" stroke="none"/><circle cx="117.42341512278645%" cy="-13.525374240534811%" r="24.496280966402495%" fill-opacity=".1" fill="#91d947" stroke="none"/><circle cx="72.19809175669522%" cy="61.03454830352814%" r="65.7462484553163%" fill-opacity=".1" fill="#3749a3" stroke="none"/><circle cx="11.458472934607776%" cy="115.55654629330971%" r="61.24285827724552%" fill-opacity=".1" fill="#91d947" stroke="none"/><circle cx="-6.788807176791147%" cy="54.661010491051655%" r="12.404684680178192%" fill-opacity=".1" fill="#33b144" stroke="none"/><circle cx="-17.06993595524859%" cy="89.68881274860973%" r="20.941809725597707%" fill-opacity=".1" fill="#91d947" stroke="none"/><circle cx="63.26238999032857%" cy="-8.434756932147378%" r="55.28046345464042%" fill-opacity=".1" fill="#91d947" stroke="none"/><circle cx="80.00285511546824%" cy="-17.618529994699294%" r="28.752288934717377%" fill-opacity=".1" fill="#33b144" stroke="none"/><circle cx="20.910735075626476%" cy="70.463997594549%" r="29.90674619526536%" fill-opacity=".1" fill="#eb9c34" stroke="none"/><circle cx="88.81900510507394%" cy="35.54510999700883%" r="59.1826744402744%" fill-opacity=".1" fill="#33b144" stroke="none"/><circle cx="-9.31563754991878%" cy="99.42610816421926%" r="29.688541875846422%" fill-opacity=".1" fill="#3f8c0b" stroke="none"/><circle cx="-5.351658785058145%" cy="80.60711812505235%" r="78.98199092409794%" fill-opacity=".1" fill="#3f8c0b" stroke="none"/>


</svg>
